# Blender v3.0.0 OBJ File: ''
# www.blender.org
o Plane
v -0.500000 0.000000 1.000000
v 0.500000 0.000000 1.000000
v -0.500000 0.000000 0.500000
v 0.500000 0.000000 0.500000
v -1.000000 0.000000 0.500000
v 1.000000 0.000000 0.500000
v 0.000000 0.000000 -1.000000
vt 0.000000 0.000000
vt 1.000000 0.000000
vt 1.000000 1.000000
vt 0.000000 1.000000
vt 1.000000 1.000000
vt 0.000000 1.000000
vt 0.000000 1.000000
vn 0.0000 1.0000 0.0000
vn 0.0000 0.0000 1.0000
s off
f 1/1/1 2/2/1 4/3/1 3/4/1
f 3/4/2 4/3/2 6/5/2 5/6/2
f 5/6/1 6/5/1 7/7/1
